<svg xmlns="http://www.w3.org/2000/svg" width="716" height="361" viewBox="0 0 716 361" role="img" aria-label="whoami: David Winkler, @999david7, Austria, HTL Anichstra&#223;e">
<defs>
  <linearGradient id="edge" gradientUnits="userSpaceOnUse" x1="0" y1="0" x2="716" y2="0" spreadMethod="repeat">
    <stop offset="0" stop-color="#7c3aed"/><stop offset="0.5" stop-color="#e879f9"/><stop offset="1" stop-color="#7c3aed"/>
    <animateTransform attributeName="gradientTransform" type="translate" from="0 0" to="716 0" dur="4s" repeatCount="indefinite"/>
  </linearGradient>
  <radialGradient id="haze" cx="0.15" cy="0.4" r="0.7">
    <stop offset="0" stop-color="#7c3aed" stop-opacity="0.18"/><stop offset="1" stop-color="#7c3aed" stop-opacity="0"/>
  </radialGradient>
  <linearGradient id="logo" gradientUnits="userSpaceOnUse" x1="40" y1="96" x2="240" y2="216">
    <stop offset="0" stop-color="#7c3aed"/><stop offset="0.5" stop-color="#c084fc"/><stop offset="1" stop-color="#f0abfc"/>
  </linearGradient>
  <filter id="glow" x="-30%" y="-30%" width="160%" height="160%">
    <feGaussianBlur stdDeviation="4" result="b"/>
    <feMerge><feMergeNode in="b"/><feMergeNode in="SourceGraphic"/></feMerge>
  </filter>
  <style>
    text { font-family: 'JetBrains Mono','Fira Code',ui-monospace,Menlo,Consolas,monospace; }
    .t { font-size: 12px; fill: #6b7280; }
    .p { font-size: 15px; font-weight: 600; }
    .k { font-size: 14px; font-weight: 700; fill: #c084fc; }
    .v { font-size: 14px; fill: #c9d1d9; }
    .r { opacity:0; animation: rin .45s ease-out forwards; }
    @keyframes rin { from { opacity:0; transform: translateX(-10px); } to { opacity:1; transform:none; } }
    .cursor { animation: blink 1s steps(1) infinite; }
    @keyframes blink { 50% { opacity:0; } }
    .float { animation: float 4s ease-in-out infinite; } @keyframes float { 0%,100% { transform: translateY(0); } 50% { transform: translateY(-4px); } }
  </style>
</defs>
<rect width="716" height="361" rx="14" fill="#0d1117"/>
<rect width="716" height="361" rx="14" fill="url(#haze)"/>
<rect x="0.5" y="0.5" width="715" height="360" rx="14" fill="none" stroke="url(#edge)" stroke-opacity="0.8"/>
<circle cx="20" cy="18" r="5" fill="#ff5f56"/><circle cx="37" cy="18" r="5" fill="#ffbd2e"/><circle cx="54" cy="18" r="5" fill="#27c93f"/>
<text x="358.0" y="22" text-anchor="middle" class="t">david@999david7: ~</text>
<text x="40" y="58" class="p" fill="#c084fc">$ <tspan fill="#c9d1d9">neofetch</tspan></text>
<g class="float">
  <path d="M106,103.8H113.7V116 M106,108.2H109.3V116 M150,103.8H157.7V116 M150,108.2H153.3V116 M227,103.8H234.7V116 M227,108.2H230.3V116 M73,123.8H65.3V136 M73,128.2H69.7V136 M73,123.8H84 M73,128.2H84 M84,123.8H95 M84,128.2H95 M117,123.8H124.7V136 M117,128.2H120.3V136 M153.3,116V136 M157.7,116V136 M230.3,116V136 M234.7,116V136 M65.3,136V156 M69.7,136V156 M120.3,136V156 M124.7,136V156 M153.3,136V156 M157.7,136V156 M183,143.8H190.7V156 M183,148.2H186.3V156 M230.3,136V156 M234.7,136V156 M65.3,156V176 M69.7,156V176 M120.3,156V176 M124.7,156V176 M153.3,156V176 M157.7,156V176 M194,163.8H201.7V176 M194,168.2H197.3V176 M230.3,156V176 M234.7,156V176 M117,183.8H109.3V196 M117,188.2H113.7V196 M117,188.2H124.7V176 M117,183.8H120.3V176 M139,188.2H131.3V176 M139,183.8H135.7V176 M183,183.8H175.3V196 M183,188.2H179.7V196 M227,183.8H219.3V196 M227,188.2H223.7V196 M227,188.2H234.7V176 M227,183.8H230.3V176 M51,208.2H43.3V196 M51,203.8H47.7V196 M51,203.8H62 M51,208.2H62 M62,203.8H73 M62,208.2H73 M73,203.8H84 M73,208.2H84 M84,203.8H95 M84,208.2H95 M95,203.8H106 M95,208.2H106 M106,208.2H113.7V196 M106,203.8H109.3V196 M150,208.2H142.3V196 M150,203.8H146.7V196 M150,203.8H161 M150,208.2H161 M161,203.8H172 M161,208.2H172 M172,208.2H179.7V196 M172,203.8H175.3V196 M194,208.2H186.3V196 M194,203.8H190.7V196 M194,203.8H205 M194,208.2H205 M205,203.8H216 M205,208.2H216 M216,208.2H223.7V196 M216,203.8H219.3V196" fill="none" stroke="#6b21a8" stroke-width="1.3" stroke-linecap="square"/>
  <g fill="url(#logo)" filter="url(#glow)"><rect x="40" y="96" width="11.6" height="20.6"/><rect x="51" y="96" width="11.6" height="20.6"/><rect x="62" y="96" width="11.6" height="20.6"/><rect x="73" y="96" width="11.6" height="20.6"/><rect x="84" y="96" width="11.6" height="20.6"/><rect x="95" y="96" width="11.6" height="20.6"/><rect x="128" y="96" width="11.6" height="20.6"/><rect x="139" y="96" width="11.6" height="20.6"/><rect x="205" y="96" width="11.6" height="20.6"/><rect x="216" y="96" width="11.6" height="20.6"/><rect x="40" y="116" width="11.6" height="20.6"/><rect x="51" y="116" width="11.6" height="20.6"/><rect x="95" y="116" width="11.6" height="20.6"/><rect x="106" y="116" width="11.6" height="20.6"/><rect x="128" y="116" width="11.6" height="20.6"/><rect x="139" y="116" width="11.6" height="20.6"/><rect x="205" y="116" width="11.6" height="20.6"/><rect x="216" y="116" width="11.6" height="20.6"/><rect x="40" y="136" width="11.6" height="20.6"/><rect x="51" y="136" width="11.6" height="20.6"/><rect x="95" y="136" width="11.6" height="20.6"/><rect x="106" y="136" width="11.6" height="20.6"/><rect x="128" y="136" width="11.6" height="20.6"/><rect x="139" y="136" width="11.6" height="20.6"/><rect x="172" y="136" width="11.6" height="20.6"/><rect x="205" y="136" width="11.6" height="20.6"/><rect x="216" y="136" width="11.6" height="20.6"/><rect x="40" y="156" width="11.6" height="20.6"/><rect x="51" y="156" width="11.6" height="20.6"/><rect x="95" y="156" width="11.6" height="20.6"/><rect x="106" y="156" width="11.6" height="20.6"/><rect x="128" y="156" width="11.6" height="20.6"/><rect x="139" y="156" width="11.6" height="20.6"/><rect x="161" y="156" width="11.6" height="20.6"/><rect x="172" y="156" width="11.6" height="20.6"/><rect x="183" y="156" width="11.6" height="20.6"/><rect x="205" y="156" width="11.6" height="20.6"/><rect x="216" y="156" width="11.6" height="20.6"/><rect x="40" y="176" width="11.6" height="20.6"/><rect x="51" y="176" width="11.6" height="20.6"/><rect x="62" y="176" width="11.6" height="20.6"/><rect x="73" y="176" width="11.6" height="20.6"/><rect x="84" y="176" width="11.6" height="20.6"/><rect x="95" y="176" width="11.6" height="20.6"/><rect x="139" y="176" width="11.6" height="20.6"/><rect x="150" y="176" width="11.6" height="20.6"/><rect x="161" y="176" width="11.6" height="20.6"/><rect x="183" y="176" width="11.6" height="20.6"/><rect x="194" y="176" width="11.6" height="20.6"/><rect x="205" y="176" width="11.6" height="20.6"/></g>
</g>
<text x="286" y="92" class="r p" style="animation-delay:.3s"><tspan fill="#e879f9">david</tspan><tspan fill="#6b7280">@</tspan><tspan fill="#a855f7">999david7</tspan></text>
<rect x="286" y="101" width="168" height="1.5" fill="#7c3aed" class="r" style="animation-delay:.4s"/>
<text x="286" y="122" class="r" style="animation-delay:0.50s"><tspan class="k">name</tspan><tspan x="378" class="v">David Winkler</tspan></text>
<text x="286" y="145" class="r" style="animation-delay:0.62s"><tspan class="k">handle</tspan><tspan x="378" class="v">@999david7</tspan></text>
<text x="286" y="168" class="r" style="animation-delay:0.74s"><tspan class="k">location</tspan><tspan x="378" class="v">Austria · AT</tspan></text>
<text x="286" y="191" class="r" style="animation-delay:0.86s"><tspan class="k">school</tspan><tspan x="378" class="v">HTL Anichstraße</tspan></text>
<text x="286" y="214" class="r" style="animation-delay:0.98s"><tspan class="k">focus</tspan><tspan x="378" class="v">software · AI · automation</tspan></text>
<text x="286" y="237" class="r" style="animation-delay:1.10s"><tspan class="k">stack</tspan><tspan x="378" class="v">Python · TS · FastAPI · React · LLMs</tspan></text>
<text x="286" y="260" class="r" style="animation-delay:1.22s"><tspan class="k">status</tspan><tspan x="378" class="v">building ▸ learning ▸ experimenting</tspan></text>
<text x="286" y="283" class="r" style="animation-delay:1.34s"><tspan class="k">bugs</tspan><tspan x="378" class="v">questionable engineering decisions</tspan></text>
<text x="286" y="306" class="r" style="animation-delay:1.46s"><tspan class="k">motto</tspan><tspan x="378" class="v">“keep building.”</tspan></text>
<rect x="286" y="321" width="24" height="14" rx="2" fill="#0d1117" class="r" style="animation-delay:1.58s"/><rect x="312" y="321" width="24" height="14" rx="2" fill="#3b0764" class="r" style="animation-delay:1.62s"/><rect x="338" y="321" width="24" height="14" rx="2" fill="#6b21a8" class="r" style="animation-delay:1.66s"/><rect x="364" y="321" width="24" height="14" rx="2" fill="#7c3aed" class="r" style="animation-delay:1.70s"/><rect x="390" y="321" width="24" height="14" rx="2" fill="#9333ea" class="r" style="animation-delay:1.74s"/><rect x="416" y="321" width="24" height="14" rx="2" fill="#a855f7" class="r" style="animation-delay:1.78s"/><rect x="442" y="321" width="24" height="14" rx="2" fill="#c084fc" class="r" style="animation-delay:1.82s"/><rect x="468" y="321" width="24" height="14" rx="2" fill="#e879f9" class="r" style="animation-delay:1.86s"/><rect x="494" y="321" width="24" height="14" rx="2" fill="#f0abfc" class="r" style="animation-delay:1.90s"/><rect x="520" y="321" width="24" height="14" rx="2" fill="#c9d1d9" class="r" style="animation-delay:1.94s"/>
</svg>
